<!-- Monochrome lockup (reference style): white circle + dark icon -->
<svg width="512" height="512" viewBox="0 0 32 32" fill="none" xmlns="http://www.w3.org/2000/svg">
  <rect width="32" height="32" fill="#000000"/>
  <circle cx="16" cy="16" r="12" fill="#ffffff"/>
  <g fill="#000000">
    <path d="M12.25 10.25h1.85c0 0 .15 11.2.15 11.2h-2c0 0-.15-11.2-.15-11.2z"/>
    <path d="M12.55 12.1h1.25v1.05h-1.25V12.1zm0 2.55h1.25v1.05h-1.25v-1.05zm0 2.55h1.25v1.05h-1.25v-1.05zm0 2.55h1.25v1.05h-1.25v-1.05z"/>
    <path d="M16 9.35L10.85 15.9l1.05.75L16 11.15l4.1 5.5 1.05-.75L16 9.35z"/>
    <ellipse cx="11.85" cy="20.35" rx="1.85" ry="2.45"/>
    <ellipse cx="20.15" cy="20.35" rx="1.85" ry="2.45"/>
    <path d="M12.55 16.2l-.7 3.2c-.15.7.35 1.35 1.05 1.35h.35c.75 0 1.25-.7 1.05-1.4l-.75-3.15-1 0z"/>
    <path d="M19.45 16.2l.7 3.2c.15.7-.35 1.35-1.05 1.35h-.35c-.75 0-1.25-.7-1.05-1.4l.75-3.15 1 0z"/>
  </g>
</svg>
